<svg width="23" height="12" viewBox="0 0 23 12" fill="none" xmlns="http://www.w3.org/2000/svg">
<mask id="path-1-inside-1_181_1700" fill="white">
<path d="M0 0.952404C0 2.39069 0.297457 3.81489 0.875385 5.1437C1.45331 6.4725 2.3004 7.67988 3.36827 8.69691C4.43615 9.71393 5.7039 10.5207 7.09914 11.0711C8.49438 11.6215 9.9898 11.9048 11.5 11.9048C13.0102 11.9048 14.5056 11.6215 15.9009 11.0711C17.2961 10.5207 18.5639 9.71393 19.6317 8.69691C20.6996 7.67988 21.5467 6.4725 22.1246 5.1437C22.7025 3.81489 23 2.39069 23 0.952403H20.7385C20.7385 2.10784 20.4995 3.25197 20.0352 4.31946C19.571 5.38695 18.8905 6.35689 18.0326 7.17391C17.1747 7.99093 16.1563 8.63903 15.0354 9.0812C13.9145 9.52336 12.7132 9.75095 11.5 9.75095C10.2868 9.75095 9.08545 9.52336 7.96459 9.0812C6.84373 8.63903 5.82529 7.99093 4.96742 7.17391C4.10954 6.35689 3.42904 5.38695 2.96477 4.31946C2.50049 3.25197 2.26153 2.10785 2.26153 0.952404H0Z"/>
</mask>
<path d="M0 0.952404C0 2.39069 0.297457 3.81489 0.875385 5.1437C1.45331 6.4725 2.3004 7.67988 3.36827 8.69691C4.43615 9.71393 5.7039 10.5207 7.09914 11.0711C8.49438 11.6215 9.9898 11.9048 11.5 11.9048C13.0102 11.9048 14.5056 11.6215 15.9009 11.0711C17.2961 10.5207 18.5639 9.71393 19.6317 8.69691C20.6996 7.67988 21.5467 6.4725 22.1246 5.1437C22.7025 3.81489 23 2.39069 23 0.952403H20.7385C20.7385 2.10784 20.4995 3.25197 20.0352 4.31946C19.571 5.38695 18.8905 6.35689 18.0326 7.17391C17.1747 7.99093 16.1563 8.63903 15.0354 9.0812C13.9145 9.52336 12.7132 9.75095 11.5 9.75095C10.2868 9.75095 9.08545 9.52336 7.96459 9.0812C6.84373 8.63903 5.82529 7.99093 4.96742 7.17391C4.10954 6.35689 3.42904 5.38695 2.96477 4.31946C2.50049 3.25197 2.26153 2.10785 2.26153 0.952404H0Z" stroke="#424242" stroke-width="4" mask="url(#path-1-inside-1_181_1700)"/>
</svg>
