<svg width="23" height="11" viewBox="0 0 23 11" fill="none" xmlns="http://www.w3.org/2000/svg">
<mask id="path-1-inside-1_180_1560" fill="white">
<path d="M23 11C23 9.55546 22.7025 8.12506 22.1246 6.79048C21.5467 5.4559 20.6996 4.24327 19.6317 3.22183C18.5639 2.20038 17.2961 1.39013 15.9009 0.837325C14.5056 0.284523 13.0102 -6.31429e-08 11.5 0C9.9898 6.31429e-08 8.49438 0.284524 7.09914 0.837325C5.7039 1.39013 4.43615 2.20038 3.36827 3.22183C2.3004 4.24327 1.45331 5.4559 0.875385 6.79048C0.297456 8.12506 -1.32026e-07 9.55546 0 11H2.26153C2.26153 9.83954 2.50049 8.69044 2.96477 7.61831C3.42904 6.54618 4.10955 5.57202 4.96742 4.75144C5.82529 3.93087 6.84373 3.27996 7.96459 2.83587C9.08545 2.39178 10.2868 2.16321 11.5 2.16321C12.7132 2.16321 13.9145 2.39178 15.0354 2.83587C16.1563 3.27996 17.1747 3.93087 18.0326 4.75144C18.8905 5.57201 19.571 6.54618 20.0352 7.6183C20.4995 8.69043 20.7385 9.83954 20.7385 11H23Z"/>
</mask>
<path d="M23 11C23 9.55546 22.7025 8.12506 22.1246 6.79048C21.5467 5.4559 20.6996 4.24327 19.6317 3.22183C18.5639 2.20038 17.2961 1.39013 15.9009 0.837325C14.5056 0.284523 13.0102 -6.31429e-08 11.5 0C9.9898 6.31429e-08 8.49438 0.284524 7.09914 0.837325C5.7039 1.39013 4.43615 2.20038 3.36827 3.22183C2.3004 4.24327 1.45331 5.4559 0.875385 6.79048C0.297456 8.12506 -1.32026e-07 9.55546 0 11H2.26153C2.26153 9.83954 2.50049 8.69044 2.96477 7.61831C3.42904 6.54618 4.10955 5.57202 4.96742 4.75144C5.82529 3.93087 6.84373 3.27996 7.96459 2.83587C9.08545 2.39178 10.2868 2.16321 11.5 2.16321C12.7132 2.16321 13.9145 2.39178 15.0354 2.83587C16.1563 3.27996 17.1747 3.93087 18.0326 4.75144C18.8905 5.57201 19.571 6.54618 20.0352 7.6183C20.4995 8.69043 20.7385 9.83954 20.7385 11H23Z" stroke="#424242" stroke-width="4" mask="url(#path-1-inside-1_180_1560)"/>
</svg>
