<svg width="30" height="42" viewBox="0 0 30 42" fill="none" xmlns="http://www.w3.org/2000/svg">
<path d="M20.5487 30.4845C18.3965 34.0563 16.2669 37.4563 15.0031 39.4309C12.4079 35.619 6.68456 26.6224 2.78854 18.2545C2.00631 16.5744 1.73189 14.5988 1.80337 12.7385C1.87525 10.8675 2.29186 9.23583 2.77454 8.26545C3.82793 6.14772 5.46663 4.37752 7.51954 3.14775C9.52655 1.94547 12.4802 1.32275 15.0303 1.34681C17.5735 1.3708 19.8856 1.8801 22.0318 3.15094C24.1732 4.41892 25.6484 6.08214 26.9024 8.29422C27.5485 9.60815 27.9048 11.4046 27.9494 13.2807C27.9942 15.166 27.7212 17.0019 27.2183 18.3432C26.4102 20.4981 23.5129 25.5653 20.5487 30.4845Z" stroke="#424242" stroke-width="2.5"/>
</svg>
