<svg width="82" height="22" viewBox="0 0 82 22" fill="none" xmlns="http://www.w3.org/2000/svg">
<path d="M4.73606 13.7892V18.846C4.56006 18.8986 4.28006 18.9513 3.89606 19.004C3.52806 19.0567 3.16006 19.083 2.79206 19.083C2.42406 19.083 2.09606 19.0479 1.80806 18.9776C1.53606 18.925 1.30406 18.8196 1.11206 18.6616C0.936059 18.5036 0.800059 18.2841 0.704059 18.0032C0.608059 17.7222 0.560059 17.3535 0.560059 16.897V4.49225C0.560059 4.12353 0.648059 3.8426 0.824059 3.64946C1.01606 3.43877 1.27206 3.27196 1.59206 3.14906C2.13606 2.93836 2.76806 2.78912 3.48806 2.70133C4.20806 2.59598 4.97606 2.54331 5.79206 2.54331C8.00006 2.54331 9.66406 3.05249 10.7841 4.07086C11.9041 5.08922 12.4641 6.46753 12.4641 8.20578C12.4641 9.29438 12.2081 10.225 11.6961 10.9975C11.1841 11.7701 10.5761 12.367 9.87206 12.7884C10.4481 13.6488 11.0161 14.4564 11.5761 15.2114C12.1361 15.9664 12.5761 16.6512 12.8961 17.2657C12.7361 17.8803 12.4401 18.3543 12.0081 18.6879C11.5921 19.004 11.1201 19.162 10.5921 19.162C10.2401 19.162 9.93606 19.1181 9.68006 19.0303C9.42406 18.9425 9.20006 18.8196 9.00806 18.6616C8.81606 18.5036 8.64006 18.3104 8.48006 18.0822C8.32006 17.8539 8.16806 17.6081 8.02406 17.3447L6.00806 13.7892H4.73606ZM6.24806 10.2864C6.85606 10.2864 7.33606 10.1196 7.68806 9.786C8.04006 9.43484 8.21606 8.92566 8.21606 8.25845C8.21606 7.59125 8.01606 7.09084 7.61606 6.75724C7.23206 6.40608 6.61606 6.2305 5.76806 6.2305C5.52806 6.2305 5.33606 6.23928 5.19206 6.25683C5.04806 6.27439 4.88806 6.30073 4.71206 6.33584V10.2864H6.24806Z" fill="white"/>
<path d="M19.4091 12.6041C18.7051 12.3407 18.0651 12.0773 17.4891 11.814C16.9131 11.533 16.4171 11.1994 16.0011 10.8131C15.5851 10.4269 15.2571 9.97036 15.0171 9.44362C14.7931 8.89932 14.6811 8.24089 14.6811 7.46834C14.6811 6.27439 15.0171 5.27358 15.6891 4.46591C16.3611 3.64069 17.3211 3.07883 18.5691 2.78034V0.647036C18.7131 0.61192 18.9371 0.568025 19.2411 0.515351C19.5451 0.462677 19.8571 0.43634 20.1771 0.43634C20.8011 0.43634 21.2891 0.559247 21.6411 0.805059C21.9931 1.03331 22.1691 1.53372 22.1691 2.30627V2.64865C23.1611 2.78912 23.9531 3.07005 24.5451 3.49144C25.1531 3.91283 25.4571 4.49225 25.4571 5.22969C25.4571 5.6862 25.3611 6.08125 25.1691 6.41486C24.9771 6.7309 24.7451 7.00305 24.4731 7.23131C24.1211 6.98549 23.6491 6.7748 23.0571 6.59922C22.4651 6.40608 21.8171 6.30951 21.1131 6.30951C20.3931 6.30951 19.8651 6.42364 19.5291 6.65189C19.1931 6.86259 19.0251 7.13474 19.0251 7.46834C19.0251 7.73171 19.1291 7.95119 19.3371 8.12677C19.5451 8.28479 19.8571 8.43403 20.2731 8.5745L21.5451 9.02223C23.0491 9.54897 24.2011 10.225 25.0011 11.0502C25.8171 11.8579 26.2251 12.964 26.2251 14.3687C26.2251 15.5626 25.8811 16.581 25.1931 17.4238C24.5051 18.249 23.4971 18.8108 22.1691 19.1093V21.2163C22.0251 21.2514 21.8011 21.2953 21.4971 21.348C21.1931 21.4007 20.8811 21.427 20.5611 21.427C19.9371 21.427 19.4491 21.3041 19.0971 21.0583C18.7451 20.83 18.5691 20.3296 18.5691 19.5571V19.2937C17.9931 19.2235 17.4651 19.1093 16.9851 18.9513C16.5211 18.7933 16.1131 18.5914 15.7611 18.3456C15.4251 18.0997 15.1611 17.81 14.9691 17.4764C14.7771 17.1428 14.6811 16.7653 14.6811 16.3439C14.6811 15.8348 14.8171 15.4046 15.0891 15.0534C15.3611 14.6847 15.6571 14.4038 15.9771 14.2106C16.4251 14.5969 16.9691 14.9305 17.6091 15.2114C18.2651 15.4924 18.9771 15.6328 19.7451 15.6328C20.5291 15.6328 21.0811 15.5011 21.4011 15.2378C21.7211 14.9744 21.8811 14.6671 21.8811 14.316C21.8811 13.9648 21.7531 13.7014 21.4971 13.5259C21.2411 13.3327 20.8811 13.1484 20.4171 12.9728L19.4091 12.6041Z" fill="white"/>
<path d="M30.9154 7.20497L28.5154 8.02142C28.2754 7.84584 28.0354 7.60003 27.7954 7.28398C27.5554 6.96794 27.4354 6.52898 27.4354 5.96713C27.4354 4.91364 28.0194 4.1762 29.1874 3.75481L31.8754 2.754H32.7634C33.4514 2.754 33.9954 2.97348 34.3954 3.41243C34.7954 3.85138 34.9954 4.44836 34.9954 5.20335V18.925C34.8194 18.9601 34.5554 19.004 34.2034 19.0567C33.8674 19.1269 33.5234 19.162 33.1714 19.162C32.8194 19.162 32.4994 19.1357 32.2114 19.083C31.9394 19.0303 31.7074 18.925 31.5154 18.7669C31.3234 18.6089 31.1714 18.3982 31.0594 18.1349C30.9634 17.8539 30.9154 17.494 30.9154 17.055V7.20497Z" fill="white"/>
<path d="M41.7052 15.8435C42.7292 15.8435 43.5452 15.5538 44.1532 14.9744C44.7772 14.395 45.0892 13.5961 45.0892 12.5777C44.9132 12.7358 44.5852 12.9201 44.1052 13.1308C43.6412 13.3415 43.0412 13.4469 42.3052 13.4469C41.5692 13.4469 40.8972 13.3327 40.2892 13.1045C39.6972 12.8762 39.1852 12.5426 38.7532 12.1037C38.3212 11.6472 37.9852 11.0941 37.7452 10.4444C37.5052 9.79478 37.3852 9.03979 37.3852 8.17944C37.3852 7.42444 37.5052 6.71334 37.7452 6.04614C37.9852 5.36137 38.3452 4.7644 38.8252 4.25522C39.3052 3.72848 39.8972 3.31586 40.6012 3.01737C41.3212 2.70133 42.1532 2.54331 43.0972 2.54331C44.9852 2.54331 46.4652 3.23685 47.5372 4.62394C48.6252 6.01102 49.1692 7.9863 49.1692 10.5498C49.1692 12.0071 49.0012 13.2888 48.6652 14.395C48.3292 15.5011 47.8572 16.4229 47.2492 17.1604C46.6572 17.8978 45.9452 18.4509 45.1132 18.8196C44.2812 19.1883 43.3612 19.3727 42.3532 19.3727C41.0732 19.3727 40.0732 19.1796 39.3532 18.7933C38.6332 18.407 38.2732 17.8188 38.2732 17.0287C38.2732 16.66 38.3452 16.3088 38.4892 15.9752C38.6492 15.6241 38.8332 15.3607 39.0412 15.1851C39.4732 15.3958 39.9212 15.5626 40.3852 15.6855C40.8652 15.7909 41.3052 15.8435 41.7052 15.8435ZM43.2412 10.0757C43.5452 10.0757 43.8492 10.0055 44.1532 9.86501C44.4732 9.72455 44.7372 9.53141 44.9452 9.2856V8.96955C44.9292 7.96874 44.7692 7.24009 44.4652 6.78358C44.1612 6.32707 43.7132 6.09881 43.1212 6.09881C42.5932 6.09881 42.1772 6.28317 41.8732 6.65189C41.5852 7.00305 41.4412 7.4859 41.4412 8.10043C41.4412 8.6974 41.6092 9.18025 41.9452 9.54897C42.2812 9.90013 42.7132 10.0757 43.2412 10.0757Z" fill="white"/>
<path d="M52.9667 20.8739C52.6947 21.2602 52.3987 21.5411 52.0787 21.7167C51.7747 21.8923 51.3987 21.9801 50.9507 21.9801C50.2467 21.9801 49.6467 21.7606 49.1507 21.3216C49.5027 20.233 49.7987 19.1181 50.0387 17.9768C50.2787 16.818 50.4787 15.7733 50.6387 14.8427C50.9107 14.6847 51.2387 14.553 51.6227 14.4477C52.0067 14.3248 52.3907 14.2633 52.7747 14.2633C53.2707 14.2633 53.7027 14.3862 54.0707 14.632C54.4547 14.8778 54.6467 15.3168 54.6467 15.9489C54.6467 16.3176 54.5987 16.7302 54.5027 17.1867C54.4067 17.6257 54.2787 18.0734 54.1187 18.5299C53.9587 18.9689 53.7747 19.399 53.5667 19.8204C53.3747 20.2418 53.1747 20.593 52.9667 20.8739Z" fill="white"/>
<path d="M59.8459 15.8435C60.8699 15.8435 61.6859 15.5538 62.2939 14.9744C62.9179 14.395 63.2299 13.5961 63.2299 12.5777C63.0539 12.7358 62.7259 12.9201 62.2459 13.1308C61.7819 13.3415 61.1819 13.4469 60.4459 13.4469C59.7099 13.4469 59.0379 13.3327 58.4299 13.1045C57.8379 12.8762 57.3259 12.5426 56.8939 12.1037C56.4619 11.6472 56.1259 11.0941 55.8859 10.4444C55.6459 9.79478 55.5259 9.03979 55.5259 8.17944C55.5259 7.42444 55.6459 6.71334 55.8859 6.04614C56.1259 5.36137 56.4859 4.7644 56.9659 4.25522C57.4459 3.72848 58.0379 3.31586 58.7419 3.01737C59.4619 2.70133 60.2939 2.54331 61.2379 2.54331C63.1259 2.54331 64.6059 3.23685 65.6779 4.62394C66.7659 6.01102 67.3099 7.9863 67.3099 10.5498C67.3099 12.0071 67.1419 13.2888 66.8059 14.395C66.4699 15.5011 65.9979 16.4229 65.3899 17.1604C64.7979 17.8978 64.0859 18.4509 63.2539 18.8196C62.4219 19.1883 61.5019 19.3727 60.4939 19.3727C59.2139 19.3727 58.2139 19.1796 57.4939 18.7933C56.7739 18.407 56.4139 17.8188 56.4139 17.0287C56.4139 16.66 56.4859 16.3088 56.6299 15.9752C56.7899 15.6241 56.9739 15.3607 57.1819 15.1851C57.6139 15.3958 58.0619 15.5626 58.5259 15.6855C59.0059 15.7909 59.4459 15.8435 59.8459 15.8435ZM61.3819 10.0757C61.6859 10.0757 61.9899 10.0055 62.2939 9.86501C62.6139 9.72455 62.8779 9.53141 63.0859 9.2856V8.96955C63.0699 7.96874 62.9099 7.24009 62.6059 6.78358C62.3019 6.32707 61.8539 6.09881 61.2619 6.09881C60.7339 6.09881 60.3179 6.28317 60.0139 6.65189C59.7259 7.00305 59.5819 7.4859 59.5819 8.10043C59.5819 8.6974 59.7499 9.18025 60.0859 9.54897C60.4219 9.90013 60.8539 10.0757 61.3819 10.0757Z" fill="white"/>
<path d="M77.7407 10.9448C77.7407 9.39973 77.5327 8.20578 77.1167 7.36299C76.7167 6.5202 76.1407 6.09881 75.3887 6.09881C74.6367 6.09881 74.0607 6.5202 73.6607 7.36299C73.2767 8.20578 73.0847 9.39973 73.0847 10.9448C73.0847 12.4899 73.2767 13.6927 73.6607 14.553C74.0607 15.3958 74.6367 15.8172 75.3887 15.8172C76.1407 15.8172 76.7167 15.3958 77.1167 14.553C77.5327 13.6927 77.7407 12.4899 77.7407 10.9448ZM81.8447 10.9448C81.8447 12.2968 81.6847 13.4995 81.3647 14.553C81.0447 15.6065 80.5967 16.4932 80.0207 17.2131C79.4607 17.9154 78.7807 18.4509 77.9807 18.8196C77.1967 19.1883 76.3407 19.3727 75.4127 19.3727C74.4687 19.3727 73.5967 19.1883 72.7967 18.8196C72.0127 18.4509 71.3327 17.9154 70.7567 17.2131C70.1967 16.4932 69.7567 15.6065 69.4367 14.553C69.1327 13.4995 68.9807 12.2968 68.9807 10.9448C68.9807 9.59286 69.1327 8.39892 69.4367 7.36299C69.7567 6.30951 70.1967 5.43161 70.7567 4.72928C71.3327 4.0094 72.0127 3.4651 72.7967 3.09638C73.5967 2.72767 74.4687 2.54331 75.4127 2.54331C76.3407 2.54331 77.1967 2.72767 77.9807 3.09638C78.7807 3.4651 79.4607 4.0094 80.0207 4.72928C80.5967 5.43161 81.0447 6.30951 81.3647 7.36299C81.6847 8.39892 81.8447 9.59286 81.8447 10.9448Z" fill="white"/>
</svg>
