<svg width="23" height="23" viewBox="0 0 23 23" fill="none" xmlns="http://www.w3.org/2000/svg">
<path d="M19.6334 11.0269C19.6334 15.5329 15.9102 19.2159 11.2798 19.2159C6.64939 19.2159 2.92615 15.5329 2.92615 11.0269C2.92615 6.52083 6.64939 2.8378 11.2798 2.8378C15.9102 2.8378 19.6334 6.52083 19.6334 11.0269Z" stroke="#424242" stroke-width="2"/>
<mask id="path-2-inside-1_102_227" fill="white">
<rect x="8.47375" width="5.61219" height="6.43235" rx="1"/>
</mask>
<rect x="8.47375" width="5.61219" height="6.43235" rx="1" fill="white" stroke="#424242" stroke-width="4" mask="url(#path-2-inside-1_102_227)"/>
<mask id="path-3-inside-2_102_227" fill="white">
<rect x="15.9565" y="13.7836" width="5.51344" height="6.54755" rx="1" transform="rotate(-90 15.9565 13.7836)"/>
</mask>
<rect x="15.9565" y="13.7836" width="5.51344" height="6.54755" rx="1" transform="rotate(-90 15.9565 13.7836)" fill="white" stroke="#424242" stroke-width="4" mask="url(#path-3-inside-2_102_227)"/>
<mask id="path-4-inside-3_102_227" fill="white">
<rect width="5.48917" height="6.62787" rx="1" transform="matrix(-0.00735452 -0.999973 0.999975 -0.007098 0.0404053 13.7994)"/>
</mask>
<rect width="5.48917" height="6.62787" rx="1" transform="matrix(-0.00735452 -0.999973 0.999975 -0.007098 0.0404053 13.7994)" fill="white" stroke="#424242" stroke-width="4" mask="url(#path-4-inside-3_102_227)"/>
<mask id="path-5-inside-4_102_227" fill="white">
<rect width="6.4998" height="5.83172" rx="1" transform="matrix(0.713355 0.700803 -0.713355 0.700803 5.2218 0.988556)"/>
</mask>
<rect width="6.4998" height="5.83172" rx="1" transform="matrix(0.713355 0.700803 -0.713355 0.700803 5.2218 0.988556)" fill="white" stroke="#424242" stroke-width="4" mask="url(#path-5-inside-4_102_227)"/>
<mask id="path-6-inside-5_102_227" fill="white">
<rect width="5.68147" height="6.43624" rx="1" transform="matrix(-1 0.000794227 -0.000822931 -1 14.1604 22.0576)"/>
</mask>
<rect width="5.68147" height="6.43624" rx="1" transform="matrix(-1 0.000794227 -0.000822931 -1 14.1604 22.0576)" fill="white" stroke="#424242" stroke-width="4" mask="url(#path-6-inside-5_102_227)"/>
<mask id="path-7-inside-6_102_227" fill="white">
<rect width="6.73814" height="5.74993" rx="1" transform="matrix(-0.712788 0.70138 -0.713921 -0.700226 9.89868 15.972)"/>
</mask>
<rect width="6.73814" height="5.74993" rx="1" transform="matrix(-0.712788 0.70138 -0.713921 -0.700226 9.89868 15.972)" fill="white" stroke="#424242" stroke-width="4" mask="url(#path-7-inside-6_102_227)"/>
<mask id="path-8-inside-7_102_227" fill="white">
<rect width="6.58036" height="5.74994" rx="1" transform="matrix(-0.712743 -0.701425 0.713966 -0.700181 17.8406 20.5874)"/>
</mask>
<rect width="6.58036" height="5.74994" rx="1" transform="matrix(-0.712743 -0.701425 0.713966 -0.700181 17.8406 20.5874)" fill="white" stroke="#424242" stroke-width="4" mask="url(#path-8-inside-7_102_227)"/>
<mask id="path-9-inside-8_102_227" fill="white">
<rect width="6.50169" height="5.74098" rx="1" transform="matrix(0.771625 -0.636078 0.649469 0.760388 12.9216 5.40016)"/>
</mask>
<rect width="6.50169" height="5.74098" rx="1" transform="matrix(0.771625 -0.636078 0.649469 0.760388 12.9216 5.40016)" fill="white" stroke="#424242" stroke-width="4" mask="url(#path-9-inside-8_102_227)"/>
<path d="M16.7142 11.0477C16.7142 13.7408 14.3681 16.1162 11.2299 16.1162C8.09177 16.1162 5.74561 13.7408 5.74561 11.0477C5.74561 8.35457 8.09177 5.97916 11.2299 5.97916C14.3681 5.97916 16.7142 8.35457 16.7142 11.0477Z" stroke="white" stroke-width="4"/>
<path d="M14.9565 11.0269C14.9565 12.9954 13.3272 14.6214 11.2797 14.6214C9.23226 14.6214 7.60291 12.9954 7.60291 11.0269C7.60291 9.05832 9.23226 7.43233 11.2797 7.43233C13.3272 7.43233 14.9565 9.05832 14.9565 11.0269Z" stroke="#424242" stroke-width="2"/>
</svg>
