<svg width="23" height="23" viewBox="0 0 23 23" fill="none" xmlns="http://www.w3.org/2000/svg">
<path d="M19.6334 11.027C19.6334 15.533 15.9102 19.216 11.2798 19.216C6.64941 19.216 2.92617 15.533 2.92617 11.027C2.92617 6.52092 6.64941 2.83789 11.2798 2.83789C15.9102 2.83789 19.6334 6.52092 19.6334 11.027Z" stroke="#43A7F4" stroke-width="2"/>
<mask id="path-2-inside-1_218_55" fill="white">
<rect x="8.47372" width="5.61219" height="6.43235" rx="1"/>
</mask>
<rect x="8.47372" width="5.61219" height="6.43235" rx="1" fill="white" stroke="#43A7F4" stroke-width="4" mask="url(#path-2-inside-1_218_55)"/>
<mask id="path-3-inside-2_218_55" fill="white">
<rect x="15.9566" y="13.7837" width="5.51344" height="6.54755" rx="1" transform="rotate(-90 15.9566 13.7837)"/>
</mask>
<rect x="15.9566" y="13.7837" width="5.51344" height="6.54755" rx="1" transform="rotate(-90 15.9566 13.7837)" fill="white" stroke="#43A7F4" stroke-width="4" mask="url(#path-3-inside-2_218_55)"/>
<mask id="path-4-inside-3_218_55" fill="white">
<rect width="5.48917" height="6.62787" rx="1" transform="matrix(-0.00735452 -0.999973 0.999975 -0.007098 0.0403709 13.7993)"/>
</mask>
<rect width="5.48917" height="6.62787" rx="1" transform="matrix(-0.00735452 -0.999973 0.999975 -0.007098 0.0403709 13.7993)" fill="white" stroke="#43A7F4" stroke-width="4" mask="url(#path-4-inside-3_218_55)"/>
<mask id="path-5-inside-4_218_55" fill="white">
<rect width="6.4998" height="5.83172" rx="1" transform="matrix(0.713355 0.700803 -0.713355 0.700803 5.22177 0.98877)"/>
</mask>
<rect width="6.4998" height="5.83172" rx="1" transform="matrix(0.713355 0.700803 -0.713355 0.700803 5.22177 0.98877)" fill="white" stroke="#43A7F4" stroke-width="4" mask="url(#path-5-inside-4_218_55)"/>
<mask id="path-6-inside-5_218_55" fill="white">
<rect width="5.68147" height="6.43624" rx="1" transform="matrix(-1 0.000794227 -0.000822931 -1 14.1604 22.0576)"/>
</mask>
<rect width="5.68147" height="6.43624" rx="1" transform="matrix(-1 0.000794227 -0.000822931 -1 14.1604 22.0576)" fill="white" stroke="#43A7F4" stroke-width="4" mask="url(#path-6-inside-5_218_55)"/>
<mask id="path-7-inside-6_218_55" fill="white">
<rect width="6.73814" height="5.74993" rx="1" transform="matrix(-0.712788 0.70138 -0.713921 -0.700226 9.89865 15.9722)"/>
</mask>
<rect width="6.73814" height="5.74993" rx="1" transform="matrix(-0.712788 0.70138 -0.713921 -0.700226 9.89865 15.9722)" fill="white" stroke="#43A7F4" stroke-width="4" mask="url(#path-7-inside-6_218_55)"/>
<mask id="path-8-inside-7_218_55" fill="white">
<rect width="6.58036" height="5.74994" rx="1" transform="matrix(-0.712743 -0.701425 0.713966 -0.700181 17.8406 20.5874)"/>
</mask>
<rect width="6.58036" height="5.74994" rx="1" transform="matrix(-0.712743 -0.701425 0.713966 -0.700181 17.8406 20.5874)" fill="white" stroke="#43A7F4" stroke-width="4" mask="url(#path-8-inside-7_218_55)"/>
<mask id="path-9-inside-8_218_55" fill="white">
<rect width="6.50169" height="5.74098" rx="1" transform="matrix(0.771625 -0.636078 0.649469 0.760388 12.9217 5.40039)"/>
</mask>
<rect width="6.50169" height="5.74098" rx="1" transform="matrix(0.771625 -0.636078 0.649469 0.760388 12.9217 5.40039)" fill="white" stroke="#43A7F4" stroke-width="4" mask="url(#path-9-inside-8_218_55)"/>
<path d="M16.7142 11.0475C16.7142 13.7406 14.368 16.116 11.2299 16.116C8.09173 16.116 5.74557 13.7406 5.74557 11.0475C5.74557 8.35442 8.09173 5.979 11.2299 5.979C14.368 5.979 16.7142 8.35442 16.7142 11.0475Z" stroke="white" stroke-width="4"/>
<path d="M14.9566 11.0267C14.9566 12.9952 13.3272 14.6212 11.2798 14.6212C9.2323 14.6212 7.60294 12.9952 7.60294 11.0267C7.60294 9.05812 9.2323 7.43213 11.2798 7.43213C13.3272 7.43213 14.9566 9.05812 14.9566 11.0267Z" stroke="#43A7F4" stroke-width="2"/>
</svg>
