<svg width="37" height="18" viewBox="0 0 37 18" fill="none" xmlns="http://www.w3.org/2000/svg">
<mask id="path-1-inside-1_186_143" fill="white">
<path d="M36.1364 17.341C36.1364 15.1214 35.6802 12.9236 34.7939 10.873C33.9076 8.82245 32.6085 6.95924 30.9708 5.38979C29.3331 3.82034 27.3889 2.57538 25.2492 1.726C23.1094 0.876624 20.8161 0.439453 18.5 0.439453C16.184 0.439453 13.8906 0.876624 11.7509 1.726C9.61112 2.57539 7.66691 3.82034 6.02922 5.38979C4.39153 6.95924 3.09245 8.82245 2.20614 10.873C1.31983 12.9236 0.863647 15.1214 0.863647 17.341H3.60797C3.60797 15.4668 3.99316 13.611 4.74155 11.8795C5.48995 10.148 6.58689 8.5747 7.96974 7.24946C9.3526 5.92423 10.9943 4.87299 12.8011 4.15578C14.6079 3.43857 16.5444 3.06942 18.5 3.06942C20.4557 3.06942 22.3922 3.43857 24.1989 4.15578C26.0057 4.87299 27.6474 5.92423 29.0303 7.24946C30.4131 8.5747 31.5101 10.148 32.2585 11.8795C33.0069 13.611 33.3921 15.4668 33.3921 17.341H36.1364Z"/>
</mask>
<path d="M36.1364 17.341C36.1364 15.1214 35.6802 12.9236 34.7939 10.873C33.9076 8.82245 32.6085 6.95924 30.9708 5.38979C29.3331 3.82034 27.3889 2.57538 25.2492 1.726C23.1094 0.876624 20.8161 0.439453 18.5 0.439453C16.184 0.439453 13.8906 0.876624 11.7509 1.726C9.61112 2.57539 7.66691 3.82034 6.02922 5.38979C4.39153 6.95924 3.09245 8.82245 2.20614 10.873C1.31983 12.9236 0.863647 15.1214 0.863647 17.341H3.60797C3.60797 15.4668 3.99316 13.611 4.74155 11.8795C5.48995 10.148 6.58689 8.5747 7.96974 7.24946C9.3526 5.92423 10.9943 4.87299 12.8011 4.15578C14.6079 3.43857 16.5444 3.06942 18.5 3.06942C20.4557 3.06942 22.3922 3.43857 24.1989 4.15578C26.0057 4.87299 27.6474 5.92423 29.0303 7.24946C30.4131 8.5747 31.5101 10.148 32.2585 11.8795C33.0069 13.611 33.3921 15.4668 33.3921 17.341H36.1364Z" stroke="#424242" stroke-width="4" mask="url(#path-1-inside-1_186_143)"/>
</svg>
