<svg width="24" height="12" viewBox="0 0 24 12" fill="none" xmlns="http://www.w3.org/2000/svg">
<mask id="path-1-inside-1_181_1813" fill="white">
<path d="M24 11.5C24 9.9898 23.6896 8.49438 23.0866 7.09914C22.4835 5.7039 21.5996 4.43615 20.4853 3.36827C19.371 2.3004 18.0481 1.45331 16.5922 0.875385C15.1363 0.297456 13.5759 -6.6013e-08 12 0C10.4241 6.6013e-08 8.86371 0.297456 7.4078 0.875386C5.95189 1.45331 4.62902 2.3004 3.51472 3.36827C2.40042 4.43615 1.5165 5.7039 0.913445 7.09914C0.310389 8.49439 -1.37766e-07 9.9898 0 11.5H3.19325C3.19325 10.3917 3.42105 9.29419 3.86363 8.27023C4.30621 7.24627 4.95491 6.31587 5.77269 5.53216C6.59047 4.74845 7.56132 4.12678 8.6298 3.70264C9.69829 3.2785 10.8435 3.0602 12 3.0602C13.1565 3.0602 14.3017 3.2785 15.3702 3.70264C16.4387 4.12678 17.4095 4.74845 18.2273 5.53216C19.0451 6.31587 19.6938 7.24627 20.1364 8.27023C20.579 9.29419 20.8067 10.3917 20.8067 11.5H24Z"/>
</mask>
<path d="M24 11.5C24 9.9898 23.6896 8.49438 23.0866 7.09914C22.4835 5.7039 21.5996 4.43615 20.4853 3.36827C19.371 2.3004 18.0481 1.45331 16.5922 0.875385C15.1363 0.297456 13.5759 -6.6013e-08 12 0C10.4241 6.6013e-08 8.86371 0.297456 7.4078 0.875386C5.95189 1.45331 4.62902 2.3004 3.51472 3.36827C2.40042 4.43615 1.5165 5.7039 0.913445 7.09914C0.310389 8.49439 -1.37766e-07 9.9898 0 11.5H3.19325C3.19325 10.3917 3.42105 9.29419 3.86363 8.27023C4.30621 7.24627 4.95491 6.31587 5.77269 5.53216C6.59047 4.74845 7.56132 4.12678 8.6298 3.70264C9.69829 3.2785 10.8435 3.0602 12 3.0602C13.1565 3.0602 14.3017 3.2785 15.3702 3.70264C16.4387 4.12678 17.4095 4.74845 18.2273 5.53216C19.0451 6.31587 19.6938 7.24627 20.1364 8.27023C20.579 9.29419 20.8067 10.3917 20.8067 11.5H24Z" stroke="white" stroke-width="6" mask="url(#path-1-inside-1_181_1813)"/>
</svg>
