<svg width="33" height="33" viewBox="0 0 33 33" fill="none" xmlns="http://www.w3.org/2000/svg">
<path d="M24.1488 4.93275L27.5783 8.39499L9.10644 26.6923L5.67693 23.23L24.1488 4.93275Z" fill="white" stroke="#424242" stroke-width="2"/>
<path d="M27.701 1.4142L31.1306 4.87643L29.7096 6.28391L26.2801 2.82168L27.701 1.4142Z" fill="white" stroke="#424242" stroke-width="2"/>
<path d="M7.17511 27.5847L3.84786 28.4716L4.76629 25.1529L7.17511 27.5847Z" fill="#D9D9D9" stroke="#424242" stroke-width="2"/>
<path d="M5.20028 27.1305L6.2584 24.0532L7.39094 24.9606L8.28753 26.1017L5.20028 27.1305Z" fill="white"/>
<path d="M5.20028 27.1305L6.2584 24.0532L7.39094 24.9606L8.28753 26.1017L5.20028 27.1305Z" fill="white"/>
<path d="M5.20028 27.1305L6.2584 24.0532L7.39094 24.9606L8.28753 26.1017L5.20028 27.1305Z" fill="white"/>
<path d="M5.20028 27.1305L6.2584 24.0532L7.39094 24.9606L8.28753 26.1017L5.20028 27.1305Z" fill="white"/>
<path d="M7.08508 23.231L8.09974 24.2553L9.1144 25.2796L8.25963 26.1263L6.23031 24.0776L7.08508 23.231Z" fill="white"/>
</svg>
